<?xml version="1.0" standalone="no"?>
<!DOCTYPE svg PUBLIC "-//W3C//DTD SVG 20010904//EN"
 "http://www.w3.org/TR/2001/REC-SVG-20010904/DTD/svg10.dtd">
<svg version="1.0" xmlns="http://www.w3.org/2000/svg"
 width="512.000000pt" height="512.000000pt" viewBox="0 0 512.000000 512.000000"
 preserveAspectRatio="xMidYMid meet">

<g transform="translate(0.000000,512.000000) scale(0.100000,-0.100000)"
fill="#000000" stroke="none">
<path d="M2162 5108 c-60 -9 -160 -41 -211 -67 -34 -18 -35 -18 -70 3 -52 30
-197 29 -301 -3 -258 -79 -547 -306 -651 -513 -96 -189 -72 -356 71 -514 122
-134 170 -218 191 -336 11 -60 10 -88 -6 -204 -15 -109 -16 -140 -6 -173 12
-42 48 -75 93 -86 20 -5 34 -22 54 -63 18 -37 55 -84 107 -135 l79 -78 -40
-107 c-77 -207 -144 -478 -173 -699 l-12 -91 -66 -7 c-178 -19 -305 -89 -383
-209 -95 -147 -108 -360 -39 -641 40 -160 60 -217 185 -512 58 -139 106 -254
106 -257 0 -4 -15 -6 -33 -6 -82 0 -188 -49 -244 -114 -43 -48 -56 -98 -51
-191 3 -61 7 -80 23 -91 16 -12 131 -14 694 -14 642 0 678 1 718 19 23 11 49
30 57 44 16 24 17 24 69 10 87 -25 300 -28 413 -8 l96 17 26 -27 c52 -56 34
-55 771 -55 l681 0 17 26 c12 18 17 48 17 102 0 67 -3 84 -29 130 -16 29 -47
66 -69 83 -46 33 -150 69 -203 69 -24 0 -34 4 -30 13 3 6 54 129 115 272 120
286 139 340 177 495 53 223 56 400 8 540 l-19 54 91 44 c118 57 208 118 271
184 69 70 74 90 35 129 l-31 30 23 32 c115 156 173 392 148 598 -12 100 -44
222 -63 247 -6 6 -27 12 -48 12 -35 0 -38 2 -49 43 -33 113 -123 231 -229 300
-116 76 -192 95 -227 57 -19 -21 -19 -19 14 -170 27 -124 28 -291 2 -415 -45
-216 -160 -421 -355 -630 -73 -78 -79 -78 -90 9 -18 140 -95 418 -168 608
l-29 78 80 78 c55 53 88 95 106 133 21 48 30 57 63 67 83 25 105 87 81 234
-26 165 -10 285 52 394 16 28 65 91 109 140 108 119 142 190 148 300 4 69 0
97 -18 155 -77 240 -384 506 -690 600 -104 32 -250 33 -299 3 l-33 -21 -49 23
c-26 13 -81 33 -121 45 -68 20 -98 22 -438 24 -201 1 -389 -2 -418 -7z m793
-107 c93 -22 185 -63 185 -82 0 -43 34 -98 87 -144 86 -75 111 -137 123 -311
31 -439 134 -895 247 -1094 14 -25 43 -66 65 -92 l39 -47 -22 -42 c-39 -78
-160 -177 -272 -224 l-35 -15 21 58 c29 81 28 215 -3 297 -50 130 -155 247
-287 319 -138 75 -219 159 -288 301 -25 51 -54 131 -66 183 -25 107 -57 159
-114 186 -78 37 -188 12 -234 -53 -12 -16 -28 -58 -37 -92 -25 -105 -45 -160
-81 -234 -68 -136 -148 -217 -298 -300 -101 -55 -206 -163 -250 -256 -56 -120
-64 -259 -21 -363 9 -22 15 -40 13 -42 -6 -6 -146 71 -194 108 -55 42 -89 82
-117 136 l-17 33 42 47 c144 164 273 647 309 1160 14 204 29 243 126 338 61
59 74 78 80 113 5 33 13 45 36 57 51 27 110 45 180 58 88 15 713 13 783 -3z
m-1117 -53 c24 -24 13 -55 -33 -92 -25 -21 -59 -58 -77 -83 -55 -81 -69 -134
-84 -323 -39 -486 -149 -928 -271 -1088 -34 -45 -69 -61 -89 -40 -14 13 -13
27 2 129 37 253 -11 410 -182 599 -102 111 -128 164 -128 261 -1 70 3 83 42
162 99 200 357 403 602 472 59 17 202 19 218 3z m1680 -14 c270 -90 530 -321
594 -528 39 -129 13 -216 -103 -344 -120 -131 -179 -245 -201 -385 -9 -63 -8
-96 7 -212 16 -118 17 -138 4 -146 -22 -14 -35 -11 -69 17 -118 100 -261 642
-290 1105 -5 83 -15 169 -21 192 -19 73 -69 154 -130 212 -92 86 -80 115 49
115 63 0 102 -6 160 -26z m-915 -746 c18 -17 31 -49 46 -112 43 -177 121 -317
236 -424 35 -34 86 -73 112 -88 163 -91 231 -154 280 -260 24 -52 28 -71 28
-154 0 -84 -3 -101 -28 -148 -81 -154 -266 -230 -419 -172 -73 27 -165 96
-218 162 l-40 51 0 97 0 97 45 17 c98 38 175 148 175 249 0 49 -4 61 -29 89
l-29 33 -212 0 -212 0 -29 -33 c-38 -42 -40 -113 -5 -187 27 -58 110 -138 161
-155 l35 -12 0 -95 c0 -79 -4 -101 -21 -129 -32 -52 -127 -132 -199 -167 -58
-29 -74 -32 -150 -31 -105 0 -158 22 -234 94 -77 73 -101 131 -101 245 0 82 3
97 32 156 44 89 114 157 231 226 213 125 342 305 399 556 18 82 46 117 92 117
17 0 40 -10 54 -22z m1842 -920 c69 -64 115 -141 139 -233 18 -70 46 -99 87
-90 27 6 27 5 43 -65 10 -42 17 -117 17 -180 0 -175 -38 -298 -136 -444 -30
-45 -55 -91 -55 -101 0 -10 12 -31 26 -46 l26 -27 -52 -41 c-64 -51 -166 -110
-242 -141 l-56 -23 -52 41 c-90 72 -225 121 -332 122 -21 0 -38 1 -38 3 0 1
51 54 113 118 224 231 358 470 408 729 23 121 14 342 -18 454 -5 18 -4 18 28
0 18 -11 60 -45 94 -76z m-1850 -389 c22 -22 63 -57 90 -77 28 -20 52 -37 54
-39 8 -5 31 -171 31 -226 0 -70 -23 -119 -79 -170 -83 -75 -202 -75 -290 0
-74 63 -93 136 -71 269 6 32 13 73 15 90 4 23 18 40 58 67 28 20 72 57 97 82
24 25 47 45 50 45 3 0 24 -18 45 -41z m-810 -65 c123 -43 202 -86 216 -117 19
-45 84 -141 124 -186 l37 -41 -71 30 c-151 65 -279 159 -360 267 -54 72 -62
89 -33 78 9 -4 49 -18 87 -31z m1635 30 c0 -15 -69 -103 -121 -154 -80 -79
-205 -159 -312 -199 -27 -11 -26 -7 22 53 28 35 65 90 81 122 36 67 83 99 209
140 41 14 82 29 90 34 18 11 31 13 31 4z m-1687 -241 c126 -117 293 -209 467
-254 70 -19 94 -31 134 -66 63 -57 162 -89 244 -79 70 8 135 37 192 85 30 25
63 42 100 51 256 59 504 226 628 423 17 26 32 44 35 40 9 -16 76 -230 96 -311
68 -265 93 -462 93 -732 0 -439 -89 -798 -291 -1183 -79 -150 -70 -199 56
-322 46 -45 83 -87 83 -94 0 -6 -11 -23 -25 -36 l-24 -25 -278 0 c-363 0 -352
-7 -288 185 l36 106 -3 657 -3 657 -32 68 c-62 130 -183 220 -333 247 -196 36
-405 -82 -484 -273 -21 -51 -21 -64 -24 -689 -3 -679 -3 -674 47 -810 27 -75
27 -113 -1 -132 -33 -24 -563 -24 -596 0 -42 29 -29 62 53 139 128 120 135
172 46 345 -184 357 -267 681 -278 1075 -10 366 32 655 148 1013 l40 122 49
-74 c28 -40 78 -100 113 -133z m-461 -800 c-6 -230 19 -451 79 -693 42 -170
97 -317 185 -497 46 -93 74 -164 74 -184 0 -27 -11 -42 -66 -93 -88 -81 -118
-133 -111 -192 l5 -44 -289 0 -289 0 0 44 c0 96 83 155 229 163 91 6 131 21
131 52 0 10 -59 157 -131 327 -178 421 -229 604 -229 818 0 161 33 251 120
329 57 51 129 82 222 96 35 4 65 9 68 10 3 0 3 -61 2 -136z m2672 116 c203
-39 301 -178 300 -424 -2 -208 -52 -386 -230 -807 -74 -175 -134 -322 -134
-328 0 -5 9 -19 20 -30 16 -16 33 -20 88 -20 89 0 165 -23 209 -64 31 -28 37
-40 41 -89 l4 -57 -288 0 -289 0 3 50 c5 63 -12 92 -107 183 -84 80 -88 101
-40 187 94 169 195 433 242 635 45 190 59 308 64 552 l5 232 32 -5 c17 -3 53
-10 80 -15z m-1282 -20 c53 -14 128 -68 165 -120 63 -89 64 -99 60 -781 l-3
-613 -37 -100 -37 -100 -47 -13 c-151 -42 -483 -16 -483 38 0 10 -14 56 -30
101 l-31 82 3 651 3 651 23 43 c78 146 236 207 414 161z"/>
<path d="M1930 4174 c-64 -28 -101 -75 -114 -144 -7 -43 15 -80 48 -80 28 0
56 29 56 57 0 11 9 32 21 47 16 20 29 26 58 26 49 0 69 -16 85 -70 17 -58 54
-76 87 -43 18 18 21 28 14 68 -5 39 -16 57 -54 95 -61 61 -127 76 -201 44z"/>
<path d="M3024 4171 c-74 -34 -128 -137 -100 -193 23 -46 96 -25 96 27 0 12 9
34 21 49 41 52 130 27 145 -41 10 -49 13 -52 39 -59 42 -10 68 21 62 74 -13
121 -151 196 -263 143z"/>
</g>
</svg>
